<svg xmlns="http://www.w3.org/2000/svg" viewBox="0 0 111 26" width="111" height="26">
  <rect width="111" height="26" fill="url(#paint0_radial)" rx="13"/>
  <path fill="#fff" d="M15.3 7.6h3.6c1.7 0 3 .5 3.8 1.3 1 .9 1.4 2.1 1.4 3.7a5 5 0 01-1.4 3.7c-.9.9-2.1 1.3-3.8 1.3h-3.6v-10zm3.5 8.5c2.3 0 3.5-1.1 3.5-3.5 0-2.3-1.2-3.5-3.5-3.5h-1.7v7h1.7zm10.4 1.6a4 4 0 01-1.9-.4c-.5-.3-1-.8-1.2-1.3-.3-.6-.5-1.2-.5-2 0-.7.2-1.4.5-2 .3-.5.7-1 1.2-1.2a4 4 0 012-.5c.6 0 1.3.2 1.8.5s1 .7 1.2 1.3c.3.5.5 1.2.5 2 0 .7-.2 1.3-.5 1.9a3 3 0 01-1.2 1.3c-.5.3-1.2.4-1.9.4zm0-1.4c.6 0 1-.2 1.4-.5.3-.4.4-1 .4-1.8 0-.7-.1-1.3-.4-1.7-.3-.4-.8-.6-1.4-.6-.6 0-1 .2-1.3.6-.4.4-.5 1-.5 1.7 0 .8.1 1.4.5 1.8.3.3.7.5 1.3.5zm9.4-6c1.6 0 2.5 1 2.5 3v4.3h-1.8v-4.3c0-.5 0-1-.3-1.2-.2-.2-.5-.4-1-.4s-1 .2-1.3.6c-.3.3-.5.7-.5 1.3v4h-1.7v-5l-.1-2H36l.2 1c.2-.3.5-.7 1-.9.4-.2.8-.4 1.4-.4zm11.3.2v7.1h-1.7v-1.1c-.2.4-.5.7-1 .9-.3.2-.8.3-1.3.3a3 3 0 01-1.7-.4 3 3 0 01-1-1.3 4.5 4.5 0 010-3.8c.2-.6.6-1 1-1.4.5-.3 1-.5 1.7-.5.5 0 1 .2 1.4.4.4.2.7.5.9.9v-1h1.7zm-3.5 5.8c.5 0 1-.2 1.3-.6.3-.4.5-1 .5-1.7s-.2-1.3-.5-1.7c-.3-.4-.8-.6-1.4-.6-.5 0-1 .2-1.3.6-.3.5-.5 1-.5 1.8 0 .7.2 1.3.5 1.7.3.3.8.5 1.4.5zm7.8-4.5V15c0 .8.4 1.3 1.2 1.3.2 0 .4 0 .7-.2v1.4l-1.1.2c-.8 0-1.4-.2-1.9-.7-.4-.4-.6-1-.6-2v-3.2H51v-1.3h1.4V8.8l1.7-.6v2.3h2v1.3h-2zm9.5 2.4h-4.9c0 .7.3 1.3.6 1.6.3.4.8.6 1.5.6.8 0 1.5-.3 2.2-.8l.5 1.2a4 4 0 01-1.3.7l-1.5.2c-1.1 0-2-.3-2.7-1-.6-.6-1-1.5-1-2.7 0-.7.2-1.3.5-1.9.2-.5.6-1 1.2-1.3.5-.3 1-.5 1.8-.5 1 0 1.7.4 2.2 1 .6.6.9 1.5.9 2.6v.3zm-3.1-2.6c-.5 0-.9.1-1.2.4a2 2 0 00-.5 1.2h3.3c0-.5-.2-1-.5-1.2-.3-.3-.6-.4-1.1-.4zm15.7-4H78v10h-1.4l-5.4-7v7h-1.6v-10h1.3l5.4 7v-7zm4 10v-10h1.8v10h-1.8zm12.5-10h1.4v10h-1.6v-6.2L90 17.6h-1.2L86 11.5v6.1h-1.6v-10H86l3.5 7.8 3.4-7.8z"/>
  <defs>
    <radialGradient id="paint0_radial" cx="0" cy="0" r="1" gradientTransform="matrix(-111 0 0 -26 111 26)" gradientUnits="userSpaceOnUse">
      <stop stop-color="#FD6216"/>
      <stop offset="1" stop-color="#FC8702"/>
    </radialGradient>
  </defs>
</svg>
