<svg xmlns="http://www.w3.org/2000/svg" width="1440" height="1440" preserveAspectRatio="xMidYMid meet" version="1.0" viewBox="0 0 1080 1080"><metadata>Created by potrace 1.11, written by Peter Selinger 2001-2013</metadata><g fill="#000" stroke="none"><path d="M3160 10289 c-63 -4 -126 -10 -140 -13 -14 -3 -38 -9 -55 -12 -58 -10 -201 -78 -277 -130 -64 -44 -122 -98 -193 -178 -24 -26 -87 -130 -162 -266 -44 -80 -110 -197 -145 -260 -36 -63 -76 -135 -90 -160 -14 -25 -58 -103 -98 -175 -40 -71 -84 -149 -97 -172 -54 -100 -80 -147 -168 -303 -51 -91 -105 -187 -120 -215 -16 -27 -66 -117 -113 -200 -46 -82 -97 -174 -113 -203 -16 -28 -80 -143 -143 -255 -62 -111 -163 -292 -225 -402 -61 -110 -115 -207 -121 -215 -5 -8 -16 -28 -24 -45 -9 -16 -32 -60 -53 -97 -21 -36 -94 -167 -162 -290 -69 -122 -134 -239 -146 -258 -12 -19 -39 -66 -59 -105 -21 -38 -45 -83 -55 -100 -17 -29 -57 -100 -109 -195 -14 -25 -43 -76 -65 -114 -79 -136 -123 -251 -146 -376 -8 -44 -7 -273 1 -320 9 -51 38 -148 60 -200 15 -35 178 -335 228 -420 8 -13 182 -324 263 -470 139 -251 280 -504 328 -588 33 -57 59 -105 59 -106 0 -2 29 -54 65 -116 36 -62 65 -114 65 -115 0 -2 25 -48 56 -102 31 -54 74 -132 97 -173 22 -41 51 -92 64 -112 13 -21 23 -39 23 -41 0 -2 43 -80 95 -172 52 -92 95 -169 95 -171 0 -2 20 -38 45 -80 25 -41 45 -77 45 -79 0 -2 13 -26 28 -52 16 -26 46 -79 67 -118 21 -38 78 -142 128 -230 132 -235 320 -572 402 -720 40 -71 82 -148 95 -170 147 -263 323 -400 619 -482 14 -4 1084 -9 2376 -10 2035 -2 2358 0 2410 12 33 8 69 17 80 19 11 2 52 17 91 34 129 52 259 152 356 272 33 42 138 212 138 225 0 3 11 22 23 43 13 20 93 161 177 312 84 151 162 291 173 310 49 86 157 280 187 335 18 33 92 166 165 295 73 129 147 262 165 295 18 33 81 146 140 250 58 105 159 285 224 400 64 116 121 217 127 225 7 13 95 172 221 400 17 30 47 84 68 120 21 36 52 92 70 125 18 33 42 76 53 95 27 49 109 195 142 255 15 28 42 75 59 105 18 30 35 62 39 70 4 8 18 33 30 55 13 22 37 65 54 96 17 32 38 68 47 81 8 13 28 55 44 94 92 222 100 450 26 674 -27 81 -38 102 -244 470 -110 196 -127 226 -215 385 -40 72 -114 204 -165 295 -51 91 -106 190 -123 220 -16 30 -36 66 -45 80 -9 14 -28 47 -42 75 -28 52 -81 147 -197 353 -153 274 -262 468 -291 522 -19 36 -38 70 -42 75 -4 6 -41 71 -82 145 -92 165 -102 184 -246 440 -63 113 -124 222 -136 243 -50 91 -79 143 -190 342 -65 116 -156 278 -203 360 -105 188 -99 178 -156 252 -138 179 -374 309 -597 329 -89 8 -4417 11 -4560 3z" transform="translate(0.000000,1080.000000) scale(0.100000,-0.100000)"/></g></svg>