<svg id="Capa_1" data-name="Capa 1" xmlns="http://www.w3.org/2000/svg" xmlns:xlink="http://www.w3.org/1999/xlink" viewBox="0 0 2880 1080"><defs><style>.cls-1{fill:#e0daf2;}.cls-2{fill:url(#Degradado_sin_nombre_5);}</style><radialGradient id="Degradado_sin_nombre_5" cx="1504.36" cy="283.48" r="542.92" gradientTransform="matrix(1.08, 0, 0, -1.12, -40.1, 1120)" gradientUnits="userSpaceOnUse"><stop offset="0" stop-color="#e0daf2"/><stop offset="1" stop-color="#e0daf2"/></radialGradient></defs><title>gray_Mesa de trabajo 1</title><g id="SHORT"><path class="cls-1" d="M350.81,730.47q-22.71,35-65.62,54.32t-102,19.35Q67.78,804.14,0,735.68l46.15-52.83q56.25,53.58,137,53.57,44.7,0,73.91-21.58t29.2-61q0-23.07-9-38.7t-30.65-27.9q-21.63-12.29-62-24.93Q101.67,537,62.74,502T23.8,409.75q0-40.9,22-72.55t60.93-49.11q38.94-17.47,88-17.49,100.23,0,166.57,61.76l-44,51.35q-51.21-45.37-117.54-45.39-40.4,0-65.26,17.11t-24.87,49.11q0,20.1,10.45,34.23t35.33,25.68Q180.27,476,225.7,490.12q72.1,22.32,110,57.3t37.85,101.94Q373.52,695.52,350.81,730.47Z"/><path class="cls-1" d="M844.45,561.16H674.87V804.31h-87V270h87V487.6H844.45V270h87V804.31h-87Z"/><path class="cls-2" d="M1729.15,515,1606.62,295.78a48.76,48.76,0,0,0-42.48-25.29H1319.08a48.77,48.77,0,0,0-42.4,25.29L1154.07,515a52,52,0,0,0,0,50.58L1276.6,784.71A48.75,48.75,0,0,0,1319.08,810h245.06a48.78,48.78,0,0,0,42.4-25.29l122.53-219.17A52,52,0,0,0,1729.15,515ZM1487.21,635.32l-.23.25-42.65,44a94.47,94.47,0,0,1-136.42,0c-37.62-38.81-37.62-102,0-140.79l23.55-24.3c6.24-6.44,17-2.16,17.32,7a124.12,124.12,0,0,0,6.15,34.53,10.79,10.79,0,0,1-2.4,10.88l-8.31,8.57c-17.79,18.35-18.34,48.24-.73,66.77a44.76,44.76,0,0,0,64.94.34l42.65-44a48.22,48.22,0,0,0,0-66.69,47.56,47.56,0,0,0-6.57-5.61,10.62,10.62,0,0,1-4.41-8.26,26.56,26.56,0,0,1,7.43-19.52l13.36-13.78a10,10,0,0,1,13.06-1.14,97.47,97.47,0,0,1,13,11.26h0C1524.9,534,1524.38,596.75,1487.21,635.32Zm89.21-92.06-23.55,24.3c-6.24,6.45-17,2.16-17.32-6.95a124.12,124.12,0,0,0-6.15-34.52,10.78,10.78,0,0,1,2.4-10.88l8.31-8.57c17.78-18.36,18.34-48.25.73-66.78a44.75,44.75,0,0,0-64.94-.33l-42.65,44a47.76,47.76,0,0,0,6.56,72.3,10.59,10.59,0,0,1,4.41,8.26,26.55,26.55,0,0,1-7.42,19.52l-13.36,13.79a10,10,0,0,1-13.07,1.13,97.39,97.39,0,0,1-13-11.26c-37.92-39.17-37.4-102-.23-140.54l.23-.24,42.65-44a94.47,94.47,0,0,1,136.42,0h0C1614,441.29,1614,504.45,1576.42,543.26Z"/><path class="cls-1" d="M2261,520.43q-32.61,37.58-86.45,54.79L2323.19,810H2220.81l-132-222.26H2032V810h-88V270h145.61q204,0,204,156.52Q2293.61,482.88,2261,520.43Zm-85.32-162q-26.16-21.12-80.76-21.13h-63V521.22h65.22q51.57,0,78.12-22.7t26.54-72Q2201.85,379.57,2175.68,358.43Z"/><path class="cls-1" d="M2722.1,804.31h-86.81V344.05H2479.64V271.46H2880l-9,72.59H2722.1Z"/></g></svg>