<svg id="Capa_1" data-name="Capa 1" xmlns="http://www.w3.org/2000/svg" xmlns:xlink="http://www.w3.org/1999/xlink" viewBox="0 0 1920 1080"><defs><style>.cls-1{fill:url(#Degradado_sin_nombre_2);}.cls-2{fill:url(#Degradado_sin_nombre_4);}.cls-3{fill:#1f2348;}</style><radialGradient id="Degradado_sin_nombre_2" cx="986.86" cy="332.8" r="449.35" gradientTransform="matrix(1.08, 0, 0, -1.12, 0.03, 1120)" gradientUnits="userSpaceOnUse"><stop offset="0" stop-color="#ec991c"/><stop offset="1" stop-color="#e9b213"/></radialGradient><linearGradient id="Degradado_sin_nombre_4" x1="795.71" y1="672.64" x2="995.05" y2="486.07" gradientUnits="userSpaceOnUse"><stop offset="0" stop-color="#fff" stop-opacity="0.6"/><stop offset="1" stop-color="#fff"/></linearGradient></defs><title>Mesa de trabajo 1</title><g id="SHORT"><path id="Nimiq" class="cls-1" d="M1184.54,509.45,1083.13,328.06A40.36,40.36,0,0,0,1048,307.13H845.15a40.34,40.34,0,0,0-35.09,20.93L708.58,509.45a43,43,0,0,0,0,41.87L810,732.71a40.35,40.35,0,0,0,35.16,20.93H1048a40.34,40.34,0,0,0,35.09-20.93l101.41-181.39A43,43,0,0,0,1184.54,509.45Z"/><path id="Link" class="cls-2" d="M984.11,492.76c31.38,32.42,30.95,84.39.19,116.31l-.19.2-35.3,36.43a78.19,78.19,0,0,1-112.91,0c-31.13-32.12-31.13-84.4,0-116.52l19.49-20.11a8.36,8.36,0,0,1,14.34,5.75,102.79,102.79,0,0,0,5.09,28.58,8.94,8.94,0,0,1-2,9L866,559.49c-14.73,15.19-15.19,39.93-.61,55.27a37.05,37.05,0,0,0,53.75.28l35.29-36.42a39.9,39.9,0,0,0,0-55.2,39,39,0,0,0-5.43-4.64,8.78,8.78,0,0,1-3.65-6.84,21.94,21.94,0,0,1,6.15-16.15l11.06-11.42a8.23,8.23,0,0,1,10.81-.93,80.18,80.18,0,0,1,10.78,9.32Zm74-76.4a78.2,78.2,0,0,0-112.91,0l-35.29,36.43a1.8,1.8,0,0,0-.19.2c-30.76,31.92-31.2,83.89.19,116.31a80.18,80.18,0,0,0,10.78,9.32,8.23,8.23,0,0,0,10.81-.93l11.06-11.42a22,22,0,0,0,6.14-16.15,8.76,8.76,0,0,0-3.65-6.84,39,39,0,0,1-5.43-4.64,39.91,39.91,0,0,1,0-55.2L974.94,447a37,37,0,0,1,53.74.28c14.58,15.34,14.12,40.08-.6,55.27l-6.88,7.09a8.93,8.93,0,0,0-2,9,102.72,102.72,0,0,1,5.09,28.57,8.35,8.35,0,0,0,14.33,5.75l19.49-20.11c31.14-32.12,31.14-84.4,0-116.52Z"/><path class="cls-3" d="M293.44,692q-19,29.26-54.89,45.44T153.2,753.64q-96.51,0-153.2-57.26l38.6-44.19Q85.66,697,153.2,697q37.4,0,61.83-18t24.43-51q0-19.29-7.54-32.36T206.28,572.2q-18.09-10.26-51.87-20.85Q85,530.2,52.48,500.94T19.9,423.75q0-34.22,18.4-60.68t51-41.08q32.57-14.62,73.58-14.63,83.84,0,139.33,51.66l-36.79,43q-42.82-38-98.31-38-33.79,0-54.59,14.32T91.68,419.4q0,16.8,8.75,28.63T130,469.5q20.81,9.66,58.81,21.48,60.3,18.67,92,47.92t31.67,85.28Q312.44,662.78,293.44,692Z"/><path class="cls-3" d="M571.75,550.26H429.9V753.64H357.09V306.71H429.9v182H571.75v-182h72.82V753.64H571.75Z"/><path class="cls-3" d="M1512.49,514q-27,31.08-71.55,45.34l123,194.31h-84.73L1370,569.69h-47.07V753.64h-72.82V306.71h120.52q168.84,0,168.84,129.55Q1539.48,482.9,1512.49,514Zm-70.61-134.08q-21.66-17.49-66.85-17.49h-52.09V514.63h54q42.69,0,64.66-18.78t22-59.59Q1463.53,397.4,1441.88,379.91Z"/><path class="cls-3" d="M1787.82,752.84h-72.61v-385H1585V307.13H1919.9l-7.51,60.72H1787.82Z"/></g></svg>